<?xml version="1.0" encoding="UTF-8" standalone="no"?>
<!-- Created with Inkscape (http://www.inkscape.org/) -->

<svg
   xmlns:dc="http://purl.org/dc/elements/1.1/"
   xmlns:cc="http://creativecommons.org/ns#"
   xmlns:rdf="http://www.w3.org/1999/02/22-rdf-syntax-ns#"
   xmlns:svg="http://www.w3.org/2000/svg"
   xmlns="http://www.w3.org/2000/svg"
   xmlns:sodipodi="http://sodipodi.sourceforge.net/DTD/sodipodi-0.dtd"
   xmlns:inkscape="http://www.inkscape.org/namespaces/inkscape"
   width="150.00002"
   height="150"
   viewBox="0 0 150.00001 150"
   id="svg2"
   version="1.1"
   inkscape:version="0.91 r13725"
   sodipodi:docname="logo.svg"
   inkscape:export-filename="/Users/jwass/sc/event-data-query-api-server/doc/logo.png"
   inkscape:export-xdpi="90"
   inkscape:export-ydpi="90">
  <defs
     id="defs4" />
  <sodipodi:namedview
     id="base"
     pagecolor="#ffffff"
     bordercolor="#666666"
     borderopacity="1.0"
     inkscape:pageopacity="0.0"
     inkscape:pageshadow="2"
     inkscape:zoom="1"
     inkscape:cx="-42"
     inkscape:cy="96"
     inkscape:document-units="px"
     inkscape:current-layer="layer1"
     showgrid="true"
     showguides="false"
     inkscape:window-width="2560"
     inkscape:window-height="1391"
     inkscape:window-x="1280"
     inkscape:window-y="1"
     inkscape:window-maximized="1"
     fit-margin-top="0"
     fit-margin-left="0"
     fit-margin-right="0"
     fit-margin-bottom="0"
     units="px">
    <inkscape:grid
       type="xygrid"
       id="grid4232"
       empspacing="0"
       spacingx="10"
       spacingy="10"
       originx="-0.99999994"
       originy="3.4826842" />
  </sodipodi:namedview>
  <metadata
     id="metadata7">
    <rdf:RDF>
      <cc:Work
         rdf:about="">
        <dc:format>image/svg+xml</dc:format>
        <dc:type
           rdf:resource="http://purl.org/dc/dcmitype/StillImage" />
        <dc:title></dc:title>
      </cc:Work>
    </rdf:RDF>
  </metadata>
  <g
     inkscape:label="Layer 1"
     inkscape:groupmode="layer"
     id="layer1"
     transform="translate(-1,-905.84496)">
    <g
       id="g4234"
       transform="matrix(0.08526078,0,0,0.08526078,30.86999,899.63872)">
      <path
         inkscape:connector-curvature="0"
         id="path4167"
         d="M 164,148.36133 A 55,38 0 0 0 111.50586,175.03906 44.5,28 0 0 0 96.5,173.36133 44.5,28 0 0 0 52.503906,197.39453 50.5,34 0 0 0 51.5,197.36133 50.5,34 0 0 0 1,231.36133 50.5,34 0 0 0 44.84375,265.02734 44,27 0 0 0 87,284.36133 44,27 0 0 0 93.742188,284.02344 76.5,56.5 0 0 0 157.5,309.36133 76.5,56.5 0 0 0 204.64844,297.33398 29.5,25.5 0 0 0 220.5,301.36133 29.5,25.5 0 0 0 250,275.86133 29.5,25.5 0 0 0 233.97656,253.20508 76.5,56.5 0 0 0 234,252.86133 76.5,56.5 0 0 0 233.28516,245.6875 40,33.5 0 0 0 253,216.86133 40,33.5 0 0 0 218.86523,183.76562 55,38 0 0 0 164,148.36133 Z"
         style="fill:#000000;fill-opacity:1;fill-rule:nonzero;stroke:none;stroke-width:1.60000002;stroke-linejoin:round;stroke-miterlimit:4;stroke-dasharray:none;stroke-dashoffset:0;stroke-opacity:1" />
      <ellipse
         ry="19.5"
         rx="30.5"
         cy="353.86221"
         cx="131.5"
         id="path4181"
         style="fill:#000000;fill-opacity:1;fill-rule:nonzero;stroke:none;stroke-width:1.60000002;stroke-linejoin:round;stroke-miterlimit:4;stroke-dasharray:none;stroke-dashoffset:0;stroke-opacity:1" />
      <ellipse
         ry="11"
         rx="12"
         cy="410.36221"
         cx="160"
         id="path4183"
         style="fill:#000000;fill-opacity:1;fill-rule:nonzero;stroke:none;stroke-width:1.60000002;stroke-linejoin:round;stroke-miterlimit:4;stroke-dasharray:none;stroke-dashoffset:0;stroke-opacity:1" />
    </g>
    <path
       style="fill:#000000;fill-opacity:1;fill-rule:evenodd;stroke:#000000;stroke-width:0.02013224px;stroke-linecap:butt;stroke-linejoin:miter;stroke-opacity:1"
       d="m 62.90492,1018.185 c 6.216553,-0.7728 9.713245,-0.4051 13.12067,0 -0.251137,3.1352 1.15882,11.2611 -2.360333,15.4116 l -7.809919,0 c -3.547808,-3.2322 -2.306075,-10.0224 -2.950418,-15.4116 z"
       id="path4217"
       inkscape:connector-curvature="0"
       sodipodi:nodetypes="ccccc" />
    <path
       style="fill:#000000;fill-opacity:1;fill-rule:evenodd;stroke:#000000;stroke-width:0.12137869px;stroke-linecap:butt;stroke-linejoin:miter;stroke-opacity:1"
       d="m 81.73867,934.96977 c -5.055683,0.58118 -10.612447,2.20466 -16.328459,4.49522 l 0.905562,15.10837 3.91435,-4.87686 c 3.474809,-5.89101 7.928518,-8.52153 12.253027,-9.03959 7.72645,-0.92622 15.03792,4.87764 15.60893,10.80876 -0.34907,14.82862 -8.64736,27.06529 -27.038107,36.01207 l -2.516766,4.11083 0.699713,11.66703 c 13.70368,-17.37581 41.31204,-32.69622 34.36088,-55.33993 -3.24956,-10.91553 -11.50632,-14.12951 -21.85913,-12.9459 z"
       id="path4219"
       inkscape:connector-curvature="0"
       sodipodi:nodetypes="ccccccccccc" />
    <g
       transform="matrix(0.08526078,0,0,0.08526078,5.20443,899.63872)"
       id="g4162">
      <path
         style="fill:#000000;fill-opacity:1;fill-rule:nonzero;stroke:none;stroke-width:1.60000002;stroke-linejoin:round;stroke-miterlimit:4;stroke-dasharray:none;stroke-dashoffset:0;stroke-opacity:1"
         d="M 164,148.36133 A 55,38 0 0 0 111.50586,175.03906 44.5,28 0 0 0 96.5,173.36133 44.5,28 0 0 0 52.503906,197.39453 50.5,34 0 0 0 51.5,197.36133 50.5,34 0 0 0 1,231.36133 50.5,34 0 0 0 44.84375,265.02734 44,27 0 0 0 87,284.36133 44,27 0 0 0 93.742188,284.02344 76.5,56.5 0 0 0 157.5,309.36133 76.5,56.5 0 0 0 204.64844,297.33398 29.5,25.5 0 0 0 220.5,301.36133 29.5,25.5 0 0 0 250,275.86133 29.5,25.5 0 0 0 233.97656,253.20508 76.5,56.5 0 0 0 234,252.86133 76.5,56.5 0 0 0 233.28516,245.6875 40,33.5 0 0 0 253,216.86133 40,33.5 0 0 0 218.86523,183.76562 55,38 0 0 0 164,148.36133 Z"
         id="path4164"
         inkscape:connector-curvature="0" />
      <ellipse
         style="fill:#000000;fill-opacity:1;fill-rule:nonzero;stroke:none;stroke-width:1.60000002;stroke-linejoin:round;stroke-miterlimit:4;stroke-dasharray:none;stroke-dashoffset:0;stroke-opacity:1"
         id="ellipse4166"
         cx="131.5"
         cy="353.86221"
         rx="30.5"
         ry="19.5" />
      <ellipse
         style="fill:#000000;fill-opacity:1;fill-rule:nonzero;stroke:none;stroke-width:1.60000002;stroke-linejoin:round;stroke-miterlimit:4;stroke-dasharray:none;stroke-dashoffset:0;stroke-opacity:1"
         id="ellipse4168"
         cx="160"
         cy="410.36221"
         rx="12"
         ry="11" />
    </g>
    <g
       transform="matrix(-0.08526078,0,0,-0.08526078,145.52623,1062.2138)"
       id="g4170">
      <path
         style="fill:#000000;fill-opacity:1;fill-rule:nonzero;stroke:none;stroke-width:1.60000002;stroke-linejoin:round;stroke-miterlimit:4;stroke-dasharray:none;stroke-dashoffset:0;stroke-opacity:1"
         d="M 164,148.36133 A 55,38 0 0 0 111.50586,175.03906 44.5,28 0 0 0 96.5,173.36133 44.5,28 0 0 0 52.503906,197.39453 50.5,34 0 0 0 51.5,197.36133 50.5,34 0 0 0 1,231.36133 50.5,34 0 0 0 44.84375,265.02734 44,27 0 0 0 87,284.36133 44,27 0 0 0 93.742188,284.02344 76.5,56.5 0 0 0 157.5,309.36133 76.5,56.5 0 0 0 204.64844,297.33398 29.5,25.5 0 0 0 220.5,301.36133 29.5,25.5 0 0 0 250,275.86133 29.5,25.5 0 0 0 233.97656,253.20508 76.5,56.5 0 0 0 234,252.86133 76.5,56.5 0 0 0 233.28516,245.6875 40,33.5 0 0 0 253,216.86133 40,33.5 0 0 0 218.86523,183.76562 55,38 0 0 0 164,148.36133 Z"
         id="path4172"
         inkscape:connector-curvature="0" />
      <ellipse
         style="fill:#000000;fill-opacity:1;fill-rule:nonzero;stroke:none;stroke-width:1.60000002;stroke-linejoin:round;stroke-miterlimit:4;stroke-dasharray:none;stroke-dashoffset:0;stroke-opacity:1"
         id="ellipse4174"
         cx="131.5"
         cy="353.86221"
         rx="30.5"
         ry="19.5" />
      <ellipse
         style="fill:#000000;fill-opacity:1;fill-rule:nonzero;stroke:none;stroke-width:1.60000002;stroke-linejoin:round;stroke-miterlimit:4;stroke-dasharray:none;stroke-dashoffset:0;stroke-opacity:1"
         id="ellipse4176"
         cx="160"
         cy="410.36221"
         rx="12"
         ry="11" />
    </g>
    <g
       id="g4178"
       transform="matrix(-0.08526078,0,0,-0.08526078,119.86067,1062.2138)">
      <path
         inkscape:connector-curvature="0"
         id="path4180"
         d="M 164,148.36133 A 55,38 0 0 0 111.50586,175.03906 44.5,28 0 0 0 96.5,173.36133 44.5,28 0 0 0 52.503906,197.39453 50.5,34 0 0 0 51.5,197.36133 50.5,34 0 0 0 1,231.36133 50.5,34 0 0 0 44.84375,265.02734 44,27 0 0 0 87,284.36133 44,27 0 0 0 93.742188,284.02344 76.5,56.5 0 0 0 157.5,309.36133 76.5,56.5 0 0 0 204.64844,297.33398 29.5,25.5 0 0 0 220.5,301.36133 29.5,25.5 0 0 0 250,275.86133 29.5,25.5 0 0 0 233.97656,253.20508 76.5,56.5 0 0 0 234,252.86133 76.5,56.5 0 0 0 233.28516,245.6875 40,33.5 0 0 0 253,216.86133 40,33.5 0 0 0 218.86523,183.76562 55,38 0 0 0 164,148.36133 Z"
         style="fill:#000000;fill-opacity:1;fill-rule:nonzero;stroke:none;stroke-width:1.60000002;stroke-linejoin:round;stroke-miterlimit:4;stroke-dasharray:none;stroke-dashoffset:0;stroke-opacity:1" />
      <ellipse
         ry="19.5"
         rx="30.5"
         cy="353.86221"
         cx="131.5"
         id="ellipse4182"
         style="fill:#000000;fill-opacity:1;fill-rule:nonzero;stroke:none;stroke-width:1.60000002;stroke-linejoin:round;stroke-miterlimit:4;stroke-dasharray:none;stroke-dashoffset:0;stroke-opacity:1" />
      <ellipse
         ry="11"
         rx="12"
         cy="410.36221"
         cx="160"
         id="ellipse4184"
         style="fill:#000000;fill-opacity:1;fill-rule:nonzero;stroke:none;stroke-width:1.60000002;stroke-linejoin:round;stroke-miterlimit:4;stroke-dasharray:none;stroke-dashoffset:0;stroke-opacity:1" />
    </g>
  </g>
</svg>
